<svg width="33" height="42" viewBox="0 0 33 42" fill="none" xmlns="http://www.w3.org/2000/svg">
<path d="M1.88235 42V35.8062L17.7647 20.764C19.0196 19.6236 19.9412 18.6011 20.5294 17.6966C21.1176 16.7921 21.5098 15.9663 21.7059 15.2191C21.9412 14.4719 22.0588 13.7837 22.0588 13.1545C22.0588 11.5028 21.4902 10.2444 20.3529 9.37921C19.2549 8.47472 17.6274 8.02247 15.4706 8.02247C13.7451 8.02247 12.1373 8.35674 10.6471 9.02528C9.19608 9.69382 7.96078 10.736 6.94118 12.1517L0 7.66854C1.56863 5.30899 3.76471 3.44101 6.58823 2.0646C9.41176 0.688202 12.6667 0 16.3529 0C19.4118 0 22.0784 0.511235 24.3529 1.53371C26.6667 2.51685 28.451 3.91292 29.7059 5.72191C31 7.5309 31.6471 9.69382 31.6471 12.2107C31.6471 13.5478 31.4706 14.8848 31.1176 16.2219C30.8039 17.5197 30.1373 18.8961 29.1176 20.3511C28.1373 21.8062 26.6863 23.4382 24.7647 25.2472L11.5882 37.6938L9.7647 34.2135H33V42H1.88235Z" fill="url(#paint0_linear_296_740)"/>
<defs>
<linearGradient id="paint0_linear_296_740" x1="1.13238e-07" y1="20.6557" x2="33" y2="20.6557" gradientUnits="userSpaceOnUse">
<stop stop-color="#015EEA"/>
<stop offset="1" stop-color="#00F2FE"/>
</linearGradient>
</defs>
</svg>
