<svg width="32" height="42" viewBox="0 0 32 42" fill="none" xmlns="http://www.w3.org/2000/svg">
<path d="M15.3393 42C12.5434 42 9.76661 41.6264 7.00898 40.8792C4.25135 40.0927 1.91502 38.9916 0 37.5758L3.61939 30.2612C5.15141 31.4017 6.93238 32.3062 8.9623 32.9747C10.9922 33.6433 13.0413 33.9775 15.1095 33.9775C17.4458 33.9775 19.2843 33.5056 20.6248 32.5618C21.9653 31.618 22.6355 30.3202 22.6355 28.6685C22.6355 27.0955 22.0419 25.8567 20.8546 24.9522C19.6673 24.0478 17.7522 23.5955 15.1095 23.5955H10.8582V17.2837L22.061 4.24719L23.0952 7.66854H2.01077V0H30.1616V6.19382L19.0162 19.2303L14.3052 16.4579H17.0054C21.9461 16.4579 25.6804 17.5983 28.2083 19.8792C30.7361 22.1601 32 25.0899 32 28.6685C32 30.9888 31.4063 33.1714 30.219 35.2163C29.0317 37.2219 27.2124 38.8539 24.7612 40.1124C22.31 41.3708 19.1694 42 15.3393 42Z" fill="url(#paint0_linear_296_741)"/>
<defs>
<linearGradient id="paint0_linear_296_741" x1="1.09806e-07" y1="20.6557" x2="32" y2="20.6557" gradientUnits="userSpaceOnUse">
<stop stop-color="#015EEA"/>
<stop offset="1" stop-color="#00F2FE"/>
</linearGradient>
</defs>
</svg>
