<svg xmlns="http://www.w3.org/2000/svg" width="33" height="33" viewBox="0 0 33 33">
    <g fill="none" fill-rule="nonzero">
        <path fill="#7B7B7B" d="M6.7 18c0 .1 0 .1.1.2 0 0 0 .1.1.1l.2.2c.1.1.3.1.5.2s.4.1.7.2c.3 0 .5.1.8.1.5 0 .9-.1 1.3-.2s.7-.3 1-.5c.3-.2.5-.5.7-.8.2-.3.2-.7.2-1.1 0-.3 0-.5-.1-.7-.1-.2-.2-.4-.4-.6-.2-.2-.4-.3-.6-.4-.2-.1-.5-.2-.8-.2.2-.1.5-.2.7-.3.2-.1.3-.3.5-.4l.3-.6c.1-.2.1-.5.1-.7 0-.3-.1-.6-.2-.9-.1-.3-.3-.5-.5-.7-.2-.2-.5-.3-.8-.4-.3-.1-.7-.1-1.1-.1-.3 0-.6 0-.9.1-.3-.3-.5-.2-.7-.2-.2.1-.4.2-.5.3-.2.1-.2.1-.3.2l-.1.1V12s0 .1.1.1h.1c.1 0 .1 0 .2-.1s.2-.1.4-.2.3-.2.5-.3c.2-.1.4-.1.6-.1.2 0 .4 0 .5.1.1.1.3.1.4.2.2.1.2.2.3.4 0 .1.1.3.1.4 0 .2 0 .4-.1.5-.1.1-.2.3-.4.4-.1.1-.3.2-.5.2-.1.1-.4.1-.6.1h-.9s-.1 0-.1.1v.8c0 .1 0 .2.1.2l.1.1H8.5c.3 0 .6 0 .8.1.2.1.4.1.6.3.2.1.3.2.3.4.1.2.1.3.1.5s0 .3-.1.5c-.1.1-.2.3-.3.4-.1.1-.3.2-.5.2-.2.1-.4.1-.6.1-.3 0-.5 0-.8-.1-.2-.1-.4-.1-.6-.2-.2-.1-.3-.1-.4-.2-.1-.1-.2-.1-.2-.1-.1 0-.1 0-.2.1 0 .1-.1.2-.1.4v.3c.2.3.2.4.2.4zM19.1 17.1c.1-.4.2-.8.2-1.2 0-.4 0-.7-.1-1-.1-.3-.2-.6-.4-.8-.2-.2-.4-.4-.8-.5-.3-.1-.7-.2-1.1-.2h-.5c-.2 0-.3.1-.5.1-.1 0-.3.1-.4.2-.1.1-.2.1-.3.2 0-.3 0-.6.1-.9.1-.3.2-.6.3-.8.2-.2.4-.4.6-.5.2-.1.5-.2.9-.2h.6c.2 0 .3.1.4.1.1 0 .2.1.3.1H18.7l.1-.1v-.2-.3-.2-.2-.1s0-.1-.1-.1c0 0-.1-.1-.2-.1s-.2-.1-.4-.1c-.1 0-.3-.1-.5-.1h-.5c-.5 0-1 .1-1.4.2-.4.1-.7.3-1 .6-.3.2-.5.5-.7.8-.2.3-.3.6-.4 1-.1.3-.2.7-.2 1.1V16c0 .4.1.7.2 1 .1.3.2.6.3.8.1.2.3.4.5.6.2.2.5.3.8.4.3.1.6.1 1 .1.5 0 .9-.1 1.3-.2.4-.2.7-.4.9-.6.4-.4.6-.7.7-1zm-1.6-.5c-.1.2-.1.3-.2.5-.1.1-.2.2-.4.3-.2.1-.3.1-.5.1s-.4 0-.5-.1c-.2-.1-.3-.2-.4-.4-.1-.2-.2-.4-.2-.7-.1-.3-.1-.7-.1-1.2.1-.1.2-.1.3-.2.1-.1.2-.1.3-.1.1 0 .2-.1.3-.1h.4c.2 0 .4 0 .5.1.1.1.3.1.3.3.1.1.2.3.2.4 0 .2.1.4.1.6 0 .1 0 .3-.1.5zM20.7 17.7c.2.4.5.7.9.9.4.2.9.3 1.4.3.6 0 1.1-.1 1.5-.3.4-.2.7-.5 1-.9.2-.4.4-.8.5-1.4.1-.5.2-1.2.2-1.8 0-.7 0-1.3-.1-1.8s-.2-1-.5-1.4c-.2-.4-.5-.7-.9-.9-.4-.2-.9-.3-1.4-.3-.6 0-1 .1-1.4.3-.4.2-.7.5-1 .9-.2.4-.4.9-.5 1.4-.1.5-.2 1.2-.2 1.8 0 .7 0 1.3.1 1.8 0 .6.1 1 .4 1.4zm1.2-4.6c0-.4.1-.7.2-.9.1-.2.2-.4.4-.6.2-.1.4-.2.6-.2.1 0 .3 0 .4.1.1 0 .2.1.3.2.1.1.2.2.2.4.1.2.1.3.2.6 0 .2.1.5.1.8v2c0 .3 0 .5-.1.7 0 .2-.1.4-.2.6-.1.2-.1.3-.2.4-.1.1-.2.2-.3.2-.1.1-.3.1-.5.1s-.4 0-.6-.1c-.2-.1-.3-.3-.4-.5-.1-.2-.2-.5-.2-.9s-.1-.9-.1-1.5c.1-.6.1-1 .2-1.4zM28.2 12c.8 0 1.5-.7 1.5-1.5S29 9 28.2 9s-1.5.7-1.5 1.5.7 1.5 1.5 1.5zm0-2.1c.3 0 .6.3.6.6s-.3.6-.6.6-.6-.3-.6-.6c.1-.3.3-.6.6-.6z"/>
        <path fill="#C10230" d="M11.1 22.1c-1.9-.2-3.6-.6-5-1.1-1.3-.4-2.3-.9-3-1.4-.3-.2-.5-.5-.7-.7-.1-.2-.2-.4-.2-.5 0-.1 0-.3.2-.5.2-.4.7-.8 1.5-1.2.5-.3 1.1-.5 1.8-.7v-1.9c-.1 0-.2 0-.2.1-1.4.5-2.6 1-3.5 1.7-.4.2-.8.6-1 1.1-.3.4-.4.9-.4 1.5 0 .5.2 1 .4 1.5.5.8 1.3 1.3 2.2 1.9 1.5.8 3.4 1.4 5.7 1.8.7.1 1.5.3 2.3.3v1.7l4.9-2.4-4.9-2.4v1.2h-.1zM32.1 17c-.5-.8-1.3-1.3-2.2-1.9-.7-.4-1.6-.7-2.5-1V16c1.1.4 2 .8 2.6 1.3.3.2.5.5.7.7.1.2.2.4.2.5 0 .1 0 .3-.2.5-.2.4-.7.8-1.5 1.2-1.2.6-3 1.2-5.2 1.6-1.7.3-3.7.5-5.7.6.1.3.1.7.1 1 0 .3 0 .5-.1.8 3.6-.1 6.8-.6 9.3-1.4 1.4-.5 2.6-1 3.5-1.7.4-.3.8-.7 1.1-1.1.3-.4.4-.9.4-1.5s-.2-1.1-.5-1.5z"/>
    </g>
</svg>
