<svg width="19" height="23" viewBox="0 0 19 23" fill="none" xmlns="http://www.w3.org/2000/svg">
<path d="M1.08378 23V19.6081L10.2282 11.3708C10.9507 10.7463 11.4813 10.1863 11.82 9.69101C12.1586 9.19569 12.3844 8.74344 12.4973 8.33427C12.6328 7.92509 12.7005 7.54822 12.7005 7.20365C12.7005 6.29916 12.3731 5.61002 11.7184 5.13624C11.0862 4.64092 10.1491 4.39326 8.90731 4.39326C7.91384 4.39326 6.98812 4.57631 6.13013 4.94242C5.29471 5.30852 4.58348 5.87921 3.99643 6.65449L0 4.19944C0.903149 2.9073 2.16756 1.88436 3.79323 1.13062C5.41889 0.376872 7.29293 0 9.41533 0C11.1765 0 12.7118 0.279962 14.0214 0.839886C15.3535 1.37828 16.3809 2.14279 17.1034 3.13343C17.8485 4.12406 18.221 5.30852 18.221 6.6868C18.221 7.41901 18.1194 8.15122 17.9162 8.88343C17.7356 9.5941 17.3518 10.3478 16.7647 11.1447C16.2002 11.9415 15.3648 12.8352 14.2585 13.8258L6.67201 20.6419L5.6221 18.736H19V23H1.08378Z" fill="#D9D9D9"/>
</svg>
