<svg width="18" height="23" viewBox="0 0 18 23" fill="none" xmlns="http://www.w3.org/2000/svg">
<path d="M8.62837 23C7.05565 23 5.49372 22.7954 3.94255 22.3862C2.39138 21.9555 1.0772 21.3525 0 20.5772L2.03591 16.5716C2.89767 17.1962 3.89946 17.6915 5.04129 18.0576C6.18312 18.4237 7.33573 18.6067 8.4991 18.6067C9.81328 18.6067 10.8474 18.3483 11.6014 17.8315C12.3555 17.3146 12.7325 16.6039 12.7325 15.6994C12.7325 14.838 12.3986 14.1596 11.7307 13.6643C11.0628 13.169 9.98564 12.9213 8.4991 12.9213H6.10772V9.46489L12.4093 2.32584L12.991 4.19944H1.13106V0H16.9659V3.39185L10.6966 10.5309L8.04668 9.01264H9.56553C12.3447 9.01264 14.4452 9.63717 15.8671 10.8862C17.289 12.1353 18 13.7397 18 15.6994C18 16.97 17.6661 18.1653 16.9982 19.2851C16.3303 20.3834 15.307 21.2772 13.9282 21.9663C12.5494 22.6554 10.7828 23 8.62837 23Z" fill="#D9D9D9"/>
</svg>
